<?xml version="1.0"?>
<svg xmlns="http://www.w3.org/2000/svg" viewBox="0 0 16 16">
    <path style="line-height:normal;text-indent:0;text-align:start;text-decoration-line:none;text-decoration-style:solid;fill:#ffffff;text-transform:none;block-progression:tb;isolation:auto;mix-blend-mode:normal" d="M 4.5 2 C 3.6774686 2 3 2.6774686 3 3.5 L 3 12.5 C 3 13.322531 3.6774686 14 4.5 14 L 9 14 L 9 13 L 4.5 13 C 4.2185314 13 4 12.781469 4 12.5 L 4 3.5 C 4 3.2185314 4.2185314 3 4.5 3 L 11.5 3 C 11.781469 3 12 3.2185314 12 3.5 L 12 9 L 13 9 L 13 3.5 C 13 2.6774686 12.322531 2 11.5 2 L 4.5 2 z M 7 4 A 1 1 0 0 0 6 5 A 1 1 0 0 0 7 6 A 1 1 0 0 0 8 5 A 1 1 0 0 0 7 4 z M 7 6 C 5.897 6 5 6.897 5 8 L 9 8 C 9 6.897 8.103 6 7 6 z M 10 5 L 10 6 L 11 6 L 11 5 L 10 5 z M 10 7 L 10 8 L 11 8 L 11 7 L 10 7 z M 5 9 L 5 10 L 11 10 L 11 9 L 5 9 z M 12 10 L 12 10.5 L 12 13 L 10 13 L 12 15 L 12.5 15.5 L 13 15 L 15 13 L 13 13 L 13 10.5 L 13 10 L 12 10 z M 5 11 L 5 12 L 11 12 L 11 11 L 5 11 z"/>
</svg>
